<mxfile host="app.diagrams.net" modified="2020-11-18T18:56:26.859Z" agent="5.0 (Windows NT 10.0; Win64; x64) AppleWebKit/537.36 (KHTML, like Gecko) Chrome/86.0.4240.198 Safari/537.36" etag="EmAbWUKgkpupdjczWHeb" version="13.9.9" type="github">
  <diagram id="KmRxddy_KSliR46GY_uF" name="Page-1">
    <mxGraphModel dx="1422" dy="762" grid="1" gridSize="10" guides="1" tooltips="1" connect="1" arrows="1" fold="1" page="1" pageScale="1" pageWidth="850" pageHeight="1100" math="0" shadow="0">
      <root>
        <mxCell id="0" />
        <mxCell id="1" parent="0" />
        <mxCell id="jMATruOiQuWeCfkyKokE-1" value="a" style="rounded=1;whiteSpace=wrap;html=1;dashed=1;" parent="1" vertex="1">
          <mxGeometry x="110" y="200" width="420" height="180" as="geometry" />
        </mxCell>
        <mxCell id="3p6xNGqBVKwrnEuydQYg-25" style="edgeStyle=orthogonalEdgeStyle;rounded=0;orthogonalLoop=1;jettySize=auto;html=1;exitX=0.5;exitY=0;exitDx=0;exitDy=0;entryX=0.5;entryY=1;entryDx=0;entryDy=0;" parent="1" source="jMATruOiQuWeCfkyKokE-4" target="3p6xNGqBVKwrnEuydQYg-18" edge="1">
          <mxGeometry relative="1" as="geometry" />
        </mxCell>
        <mxCell id="3p6xNGqBVKwrnEuydQYg-27" style="edgeStyle=orthogonalEdgeStyle;rounded=0;orthogonalLoop=1;jettySize=auto;html=1;exitX=0.5;exitY=1;exitDx=0;exitDy=0;entryX=0.5;entryY=0;entryDx=0;entryDy=0;" parent="1" source="jMATruOiQuWeCfkyKokE-4" target="jMATruOiQuWeCfkyKokE-14" edge="1">
          <mxGeometry relative="1" as="geometry" />
        </mxCell>
        <mxCell id="jMATruOiQuWeCfkyKokE-4" value="" style="ellipse;whiteSpace=wrap;html=1;aspect=fixed;" parent="1" vertex="1">
          <mxGeometry x="261.5" y="250" width="80" height="80" as="geometry" />
        </mxCell>
        <mxCell id="jMATruOiQuWeCfkyKokE-5" value="&lt;b&gt;AWS&lt;/b&gt;" style="text;html=1;strokeColor=none;fillColor=none;align=center;verticalAlign=middle;whiteSpace=wrap;rounded=0;" parent="1" vertex="1">
          <mxGeometry x="120" y="210" width="40" height="20" as="geometry" />
        </mxCell>
        <mxCell id="jMATruOiQuWeCfkyKokE-6" value="FRT" style="text;html=1;strokeColor=none;fillColor=none;align=center;verticalAlign=middle;whiteSpace=wrap;rounded=0;" parent="1" vertex="1">
          <mxGeometry x="281.5" y="280" width="40" height="20" as="geometry" />
        </mxCell>
        <mxCell id="jMATruOiQuWeCfkyKokE-9" value="" style="shape=image;verticalLabelPosition=bottom;labelBackgroundColor=#ffffff;verticalAlign=top;aspect=fixed;imageAspect=0;image=data:image/png,iVBORw0KGgoAAAANSUhEUgAAATYAAAD4CAYAAABmKcrZAAAgAElEQVR4Ae3dB5RsRbU3cISnLEUQhecDyUjOGSTKFQkSRJJkuKASBckZJIkSJUiQfJFw8UrOOWceIEFQAYmPDCKGZ/jqW79y1X3N3Jm5E/p0n+7ZtdaZnj59Tp06u3b9a6faNUmKEhQICgQFuowCk3TZ+8TrBAWCAkGBFMAWTBAUCAp0HQUC2LquS+OFggJBgQC24IGgQFCg6yjQJ7D9v//3/9K//vWv9M9//jP94x//iCNoEDwQPFAbHoBNMKqv0iewAbMPPvgg3XDDDenII49MO+64Y9puu+3iCBoEDwQPtI0Hdt9993TGGWek3//+9+l///d/s/DVG7hNAGxFUnPjDjvskKaffvr0uc99Lk011VRxBA2CB4IH2s4D8GjppZdOl19+efroo496BbcJgI3q+frrr6fddtstA9pqq62WTjnllPTQQw+lp556Ko6gQfBA8EBbeODJJ59MN998c9pll13SHHPMkWaZZZZ04403Zsmtp1o6AbAR76699to0zzzzpG9961vpscceS3/729+ybk2vjSNoEDwQPNAuHvj73/+ePvzww6yOzjXXXGn55ZdP77zzTvYFNKqkEwDbH//4x3TyySdnRDzrrLPSX/7yl36NdI2Vxf9BgaBAUKBKCpDMHO+991767ne/m6abbrp03333JYDXWCYAtrfeeivtv//+aZlllknXXXddFvMab4j/gwJBgaBAuynw17/+NZvIqKPHH3/8BDg1AbC98cYbaY899kgrrLBCuvXWWydAwna/UDy/PhQos2dji8o5n1GCAlVRgMnsggsuSLPOOmvab7/9AtiqIvRIqpd95ZFHHskhQHfcccf4V3ee/ePoo49O2267bbr77rvDjDGeOvFPMykQwNZMakZdGajEOF5zzTXZDnv++ednqgA19tjDDz88zTbbbGnPPffM3nXnFRKc/3ndy9Eo3ZXfGyW9cs59jeejG4ICAWzBA02lAIDpDdj+/Oc/Z1sHT9Vee+2VjbuuK+Dkf9e88sor6aWXXkp/+tOfsvrgvAOjspv4vxQA6ByvvP8D3Apl4jOALXigqRToCWznnHNOltTOPPPMNP/8848HNUBUCnDiiFp11VXTTDPNlA/hROIjqa5CitZZZ5209957pzfffLPclkHNqpcVV1wxx1EGsI0nzYj/J4BtxLNAcwnQE9hOOumkJCxoiSWWSLvuumtWPxulK9dblrfkkkumtdZaK11yySXp/vvvT9tvv31WWY877rgs3R188MFp2WWXza57LXbf+++/n0Fts802m8A43Ny3ito6jQIBbJ3WYzVvbwG2q6++Os0444xpvfXWy8tbFlxwwXTFFVfkJS7lFVxryctRRx2V5p133rwExvpjsZKCKtdcc800atSoDGxjx45N8803XzrvvPOyBCgu6YEHHsheL+eKra7UHZ8jmwIBbCO7/5v+9gXYrrzyyvSZz3wmsakBt4UWWihts802eXGyaxRg9Nprr6Wddtopr2Q54IADcsS4RcynnnpqWmWVVdLiiy+el+c8/fTTaf3118/rk19++eUMiGx1IstffPHFsK81vSc7u8IAts7uv9q1vgDbVVddlb74xS9m7+ezzz6bTjjhhAxugrvffffdbOwHbC+88ELacsst08wzz5zWXXfdHAYiFGT06NFpiy22SPvss08GQ84EYSLiJ++5554MZosttlg66KCDsq2tgGXtCBINagsFAtjaQvbufWgBtp7hHiQzoEadpHoWT+arr76adt555wxYwPD555//2MFLWtYiP/jgg2nllVdOP/nJT9LZZ5+dZphhhvTEE09kkOxeisabDYUCAWxDoVrc0ycF+gI2YRrCOEhhc845ZyreUja2Y445JtvY2OV4SB1CPyRbEODL2UC6cy2ngowya6yxRk7CEGuV++yKEf1DANuI7v7mvzxgA0RAiX1tzJgx4x/i/HPPPZc9mUI/rr/++nzt7bffnm1lVFFS26OPPpp4U9nXTjvttPGOAXVffPHF2R437bTTpksvvfRjcW3jHxT/jHgKBLCNeBZoPgEAmBAODgNAVApg4s185plnMjgx/HMKkLruvPPO7BywKkEsm88DDzwwS2nuU3zKBfiVr3wlLbDAAjncw7OiBAV6UiCArSdF4vuwKQCAqJ7USQzWWMpv1Eq/AyZqpk8AJwCXnU24h3udd49rgKJkgksttVQ64ogjsu3N+ShBgZ4UCGDrSZH43hQKFDDy2bOU34CS/8tRAA6YFUAr1wI6GZqFhgjmJfWV+3vWH9+DAgFswQO1pwBJbty4cWmDDTbIsW2CdUl7UYICfVEggK0vysT52lAAk/KOioW77bbb8gJ5klyUoEBfFAhg64sycb42FABibHYlni1ArTZdU9uGBLDVtmuiYUGBoMBQKRDANlTKxX1BgaBAbSkQwFbbromGBQWCAkOlQADbUCkX9wUFggK1pUAAW227JhoWFAgKDJUCAWxDpVzcFxQICtSWAgFste2aaFhQICgwVAoEsA2VcnFfUCAoUFsKBLDVtmuiYUGBoMBQKRDANlTKxX1BgaBAbSkQwFbbromGBQWCAkOlQADbUCkX9wUFggK1pUAAW227JhoWFAgKDJUCAWxDpVzcFxQICtSWAgFste2aaFhQICgwVAoEsA2VcnFfUCAoUFsKBLDVtmuiYUGBoMBQKRDANlTKxX1BgaBAbSkQwFbbromGBQWCAkOlQADbUCkX9wUFggK1pUAAW227JhoWFAgKDJUCAWxDpVzcFxQICtSWAgFste2aaFhQICgwVAoEsA2VcnFfUCAoUFsKBLDVtmuiYUGBoMBQKTDigc2u4n0dQyVq3Dd4CvTVB3G+b/6skjaD78F63dH1wKbz//nPf6a///3v6a9//Wv685//nN577730/PPPp0ceeSTdeuutaezYseniiy8ef9x4443p/vvvT88991x655138j3uVYe61Bll+BRAy5dffjn98pe/HE/7xn6I//+PJ1tJC+Ph6quvTsChU3m964BNR/zrX/9K//jHPzIQffTRR+nJJ59MF110UTr00EPTZpttlr7+9a+n5ZdfPi255JJp4YUXTnPPPXeac8458zHXXHOlBRdcMC2++OJpueWWS1/72tfSBhtskA466KA0ZsyY9Pjjj6c//elPuX7PKEDXqQwwfHgaeg0mCpPI/PPPn+aYY47xfVD6Ij7/zZOtpoPxsMIKK+QJ3VjqxNI1wFYA7W9/+1v64IMP0uWXX5722GOPtMwyy6TZZ589zTTTTOlLX/pS+uIXv5i+/OUvp1VWWSVtvvnmaeedd0577rln2mefffKx9957p+9///tp9OjRaa211sqg95//+Z/5XnXMNttsGRB32WWXdNlll2XpzzMBXJTBUQDz6ScDyYTT2A+lP+Lz33zZCjrgfWPG2DDBm8AD2AbH0025GpgBFAOEqvj0009nqWyeeeZJn//859NUU02Vpp122rTSSiul/fbbL11xxRXphRdeyMCn06ilf/nLX/K97m88nCft/fGPf0wvvfRSuvbaa7PUNmrUqAToppxyyjT11FNn0PzhD3+YnnnmmXx/qKsD71oTgskBTW+55ZZM78Y+iP8/zpOtoMeHH36YjjrqqAxs/g9gGzg/N+VKoAZEXn/99XTVVVdldfG//uu/0vTTT58AG4mLXeKVV15JBhDwcz31saiQQFHH9XX43VHUWnWo63/+53+yXW6bbbbJz5puuumyRPftb387XXPNNblNrovSPwUKsJEQ7rzzztxHffVFnO+bT5tFG7wOPI8++ugANmDRyqITAQyjM0Dbcssts2o577zzpjXXXDP99Kc/Tb/73e+yNKZtrm92Uae6SXW///3v0/HHH5/WXnvtpA3U3i222CIbX4GqtlbRhma/UzvqawS2u+66K08g7WhHPPPfFCAs6JNjjjkmmwdCYmsRZyA8FZLBebvttsvS2XzzzZe23XbbNG7cuOzBLFKYax1VlVI/0PLMt956K7dh6623zkbwWWaZJW2//fZZxcIgVbalqnesut4AtqopPLj68WgA2wor5FCJVkhsRUL69a9/nX70ox+lRRZZJEtGVMFLL700vfrqq+Mlo3YBSGkje9yFF16Yttpqq+xo4F1ls2D/I721q32DY/HWXB3A1ho6D/QpAWx77JHdwWLAqgY2xGbkZ7wXdsFgzxlw1llnZaN+HdU8baainnHGGTlk5Atf+ELaeOON03XXXRfg1jDKAtgaiFGDfwPYWgRsjPZvvvlmOvXUU9NSSy2VpbR99903PfzwwxnsqIA6o45F26nNDz30UNJmqumyyy6bTjnllPTGG29ku1td294qegawtYrSA3tOAFvFwIbAQIuKKZSCQZ5h/vzzz88eSb91SiFR8qKSMBdYYIE088wz53fiza0zMLeCvgFsraDywJ8RwFYxsJF22KoEwVLjhAPcdtttOc6p08CggLSYuNtvvz2vZBAkvMMOO+R37LT3GfgwmfiVAWwTp1ErrwhgqwjYEBaokXC+973vZVATwmFNp/N+7+TCefDoo4+mddddNwcP8+yS3Lrh3YbSLwFsQ6FadfcEsFUEbKQXoGbAk9Q22WSTHNHPQdHpoIYdvYN3fPbZZ3P8nRUMPLuvvfbaiFRLA9iqA6mh1BzAVgGwFVCzXs0yKFH8QiS6UVUD1L/5zW/yWlXvSi0VzNuN79rfAAtg6486rf8tgK3JwIag0gMdeeSRWUVbY401kpg1A71bC6cCyU0YiDWt1rK+/fbbXSGZDrTPAtgGSqneryuxk80aJwFsTQQ2nWN92plnnpkDWldcccV03333db3dCROR3B577LHsHBEOcuKJJ+YF+r2zcfedrQrY2CxNjOIsb7rppgmOm2++OTtyBrpkCI+WQ7/VoWiPhA7GzQMPPJDjI4fbrgC2JgIbJpTZQXohqVIw3UgypntXC8CXWGKJtNBCC+WVFJi2LgNouIOlv/urADZ0M1FK8/OVr3wl0xVt5d4rh5hI+cYAA/r3V9TH6XPPPfeMN430vN41w+mvid3bW/0mRXwjX+Dpp5+eIwZ6tmuw3z1Hn8Ra0SasPJDuh5NAfNfPf/7z3EEG9kgp3tVAlEWW1PbNb34z/fd//3flKzrqQN+qgE1ygk033TTbamV4kRpJyqrGQxYWKakABHBrnEz8T71zHqi9++67eYnceeedl/uqAI3Pck2px7lS1OG8z1Kf68u5xvt7tkEd2lHq145yjd/UEcBWKD3hJ3pdcMEFadZZZ81mHt8byySNX/wval4yOjPecJZU6TQM+JOf/CQnf9x1113Hewd7PnMkfGdfk6VXCiTShhUXjYOkG2lQFbBZgmeyFC8oDTymLuDS+IkHhd8I/GbvBBwK0MDbzsuYfOyxx+aJV2JSiTHV6Vp2YSm0mRB+9rOfpXvvvTcDn2cozAznnHNO7kvgSm3k9b/++uvTHXfckRMn0FZOOumk/BsA1Sb97tNzLMNTv6w1l1xyyfjkjwFsmcR9/mkbsOkYQbclRfeDDz6Yma/bB3NfPWGgkF7XX3/9vNJCthIDpJvp0Qpgk025AFZP2gMPEwgVVfor16K3/S5WXnnlnNEXsEhkYI2yTL+Cxl988cWcbn699dbLEgEeXmyxxXK/maDFJionn3xyPidxg+zLnkMaJ026d6ONNsr8T0iQS5B92WRvbFhrLGuNkCDnV1tttTzpUT21E+1CYuvZo//3vS3Ahnl0/u67755mmGGGvBaUIXckFzTB0FRSg8BAw9xl9u9G2lQJbLzNQmnY0fAaAGs88BvA04Yrr7wy77tgTTKNBDgBmyeeeCKvSRZ2pE9ITu5jOthrr70y75LCSNskMdqHpX+Wz+nP4447LqfWkrTB+maAZPICaqRJywUtG3RefdqrLdok6QPb4I9//OPcftKb5wNAzwSAAWx9j4qWA5sOx1DEcXsPyHVvN6huHsB9k//jv6CNeDZ7LrANnHvuuVn1+PhV3fOtSmATBymMxoY8gOWrX/3q+EMqcgby999/P/MdlZJ5hTQEYFz7i1/8ItPeAPntb3+bJa/TTjstAx1wsh/GOuusk6U74OmggZDu7KMBeKiw9tmQ+MC74nFJUEnlnkV1Vb9DJACwo3ICTmBnXKj3D3/4Q/5fMs4CiBIsBLD1PRZaDmw61+ym8y1uZ8cAdAZ1lJSZXCJNHj3Mz/ZDZerGUiWwkdjse8F+JX0Ux1Q5SDxAAvjgO4PAsj30pnKaWGRoxpcOYGQSVg/7HQ8p9ZAXm1r5ne98Jx+eybMv2Sjp0LNJegAM33sWKRywyddnPbTznkGiI41Jy+0Z7scHvrO5/uAHP8jLDAGbmMcAtv5HRMuBzQMZZu1LgCl0dJT/owDm563bbbfd0jTTTJO3/AMA3Qj8VQJbcR6QfMrEiYaNR6E6E4AtGklgU0wxRTaRABYTSk9gK8kMpKBiM7P8D+iUgxpL0iYNnn322RkQ2dVK/xVgcx8VtjyjEdg8mweW7c66YiouUCb5FWCjEofEVnpwws+WA5sOYYA1s7FFYO4oH6eAQWC2XnTRRZNVGNKOm9m7rVQNbCQgk0R/tENr9qtDDjkkS2EM9iQ3+9CSioBekdjEi5Gm2N4Y80lqHAnOOfA2z6b/ARaPKEmvN2BzL82lN2Cz3I6N1f63hAD1AlSqLjuc/H4BbP2PhpYCGyZiLxCvpdOI4jo2yoQUYPcxq1NlhBQYYN1WqgY20g3JCe3wWW8HiYzBnleTZATErN1dddVV8+oFA8Q5cZYHHHBABi1S4E477ZSN+6L+1QE82eKE7AAjvE5yA2zCPnxXisTGtgwUC7BRhYX6UF9JjxtuuGHeIEg4ijZIlEDFpV5/97vfzYAdElvfI6JlwKZjPYwB1kx68MEHZ4YrHd53E0fmLwaj2Cc7pAsLYFDutlIVsLGdMXPIEMNxIJ+fibTxIAmjr4mWMwHQcNwAqbvvvjufYw4wwVANhXrYsZ59i8QGvEh2wkLwMilKndLXP/XUUxnI2I/dJxau8Pnzzz+fEzwUMwxgA4qkOo4G44OEzrlhB3gAx8YmcNtuaFRgnlehJBxw3omaSkocbtFGfRIrDwax8kAHEqcxmZ2leIFKZw+3Q7rxfvQibXAiGKBmbOe6qVQFbGUCJfFKC9Xb4bcbbrghB9wCJcBSpGJ8Khj2wAMPzFIY0AAi6iGR8YpSU61HFbJBfaU6HnrooRnEyiTEyaBumknhdSApmJdaW1LE61fSGzsdE4T7hYFwVggKVj+zjes5Ijg3ABu7HBCSwBQth1sC2Iaw8sBMKB6IjUDySIxROnu4HdKN96MNmhlcnAhirAzYbqJZFcCGFwAF2qkfSPR2oCUgc7iW1FRoW+4v5/1W6nO938s59XiOw//O+11xT7m+8KjfyjM9rxylvnK/T9c11q0+R2m7a8p95ZnlOUP51BbPC4ltEBKbTuK6BmxidRCwMNJQOmEk3INpqUWCmKkkJIlmMHBdaIcHqIOk+Ngwuf29EsA2BInNLCOo0RIRhlKDNkr/FABiDNUi0BmvBWsGsPVPs/h16BQIYBsksBmMDKIGp/g1kkd/0prfihgPEMtB6gOI/d079G6t353ekxq15557Zo+ZzaG7aUIIia1ePIffQhUdRHYPICWbAXf2FltskYGqvy4FZPbjlGaGquLgkpcJgcHWYB8JBaMBc+tHORD233//ALaR0PFtescAtkFKbICKF0iYB8OkwdpfoX5ZuyfyWgQ5z5CFw9/4xjfSt771rbyer9tThxf6kHapoFNOOWWOazJJdEsJia1ePRnANghgQywSFrc3YCsZcvvrUktNrLuzgJmkxoAubkguLIBnPR/JT1S5gd/b4bkOv1HfyuG786WUa8p1pa5yjU9Hud9nb9eU+xt/d67c77PxmnKd8xMrVHeBuhZYA/2B3DOxOuvwex2ArfRL6dOen82gdamzDjTvrw3eNVTRAaqiiCUOSJApx4F4nYlJHQXYSGhigBCb1OdTfA8vmiBFgZACLEmDovPlMBMRbumJ6wVXytIADO1TKpBSHFBZ/KxtQFfA5VFHHZXjiESfkwY9C0NqqzaICFe3xfu8up5L8nSNZ4lOd152CDttaZP73A/EtIVKLXpd4Ofhhx+ec9WX5Tf9MZw2WsJj0bXneGY3FDRup1cUHdHf8qTeDiFJftd/Ay14qvHwjtaMmtDV0/jbQOts1XXapr0R7jGAcA/EImVQK6effvr8/8QYpQAbLyogw4Dq8QmUBChaqiJEQJAiAKSySjfj/5LllNFd5DdQBSai0EWP2+CjAGXZb0HU+OjRo/P6TDnxS8AmcFp77bXTggsumFViz+EAseTGWj/gJr2MZ9u3wTpYS3Jc7xqDw/sD1QUWWCBLmtoiat13QaITowdm23777fNzByLxtmogDPc57QY2k46+lGVGlL/1y40H3sFPE5uICx0KUOILQOm7T0HW7KPqwS/yw+HxupUAtkGqoiKmDXodbKBPbCAXYCsSGxDCFGZPkdtWLpDY2J4AGwluxhlnTBdeeGFmJBIO9VVOM1v6UeXUIQUQQJHFwWJloOVeubsspzHQrIiQZJCUp60nnHBCfpZ1f57vGsDp+SQ06jBv5cILL/yxHF5XXXVVBiMSqlUD1iJa+Ox67ZMWh3Qni8PE6OGZpEBgbnH2xGyUdRswfbWn3cCGJ6y9BGokaasKymEicsio0Vf/AILGol/wnX5mOsGzrvFZ/sdzMoBYOVC3EsA2SGAj0YjFAihApi9GKR1dgI3kBFAsZ5Gi2To6wIQRReRjFuvwSHbSu1AhncOwQINExLvqnELak8XBInygyFOrLgAFbBSDjYrrdyBklQRAthjZOj9ARXWVsgYoWvYE6Mz6lr4AWkDmvHf1bDO4OpZeeul8LTWWaup3zzWz91e8D/XAM9DD924o7QY2z5eMUj+axPRF4+F3tNY//tf/JiShSzJwiMe0mkZfl35mstDPlkDRNtxncbyJE//hY89jc7Yg3m+WaLmuAKXnaQ9eM5EX/q26zwPYBglsOo7hm0OA1DOxgVyATXgIQKBCWqjMzmTxsDAQDKcjMIZz1D+zIdDEJEDGM9VVGMZ54Agg7LFAqiJ52c2mgIVrtc8n5lpkkUWyCi05oOh/Bw8te5c2UTU8l3oM7CQgtKZQyhqgaxb3zmx93sM17idJmtUNionRQ9sMFO32WdpaNaNXXb/+aKeNzfMBG5NB4Sf93vNAB32M/yxy13fME/qSVmBxuknQonffObfwldTgwMkEiz8AI5787Gc/m/fQ5e23uF18J9NH4TttYS7BXyUdedV9oX7vjSZhYxugjY0ERBUbLLCxW3EEkMRIfZgL2ACLAgYF2Ni2ij1O5wAXTGR2Ldc6T7UowAZYqLVjxozJHapzXWuGBJCYVbtdQ3WwXtNhEbNDVgUzPEYEoJjRxh2yo7LdYP7iZNBu72FhM1WEx5cUS32emGqp/gJsnul7NxT9UQdg0xckL6aKcuA3jhq52vAEgDJpASyOH9I+e6fsGrPNNlteoO4efcu+SgtwP/7DPxxP6sJrTAr4VTojXn/XH3bYYZkHPctkZ/khYMP/E+OPZvFCANsgJTb5pSRNHCywUTEnltWiN2Az8GVdMFPKl1VUX6qAFDAYC+AAXJKXDTMAlOITs1EZGP21gaTF4FsA0ieGLQBLrfQ7xvAb9YGDwOJ1NjQASRUhuSlUUPtaap+BUZ6df+zlTwBbL0RpwinAKj5QGBJJrEjkPjmcpDIyWZnoCrCZrPAcnnKe9KafaQDstqQ3Nlqgp9+AFGAjsfnOVMEeS5rDL37fcsstsw0aH6kXQGqDe0oGkCa87kSrCGAbJLBRRYcisQ0V2DCcLdQwlFQwmBKYMOyadcXAAS1MI3kfjyinAcZkz3MNG557SGg8qSQ9tjIgxZMq7Q2JD1gJ7TADqwOjOqSwkeiQsR+wUztIXSQ7z3YtmhgoBlh/pRHYQhXtj1KD+60AGylM/+rHxsPeCCQ5k1UBNpqA+4AAECKZSexgogJMgwE2rTU5WllCHSW9qps0yATDnOEZntWKEsA2SGAj3lML2ROARZF8+uosDMJuxtkwMYmNARZQUQHKtepn+xKTRioq4SCYhfNBniwMhYmAFJVXAj8gA2xcB3j8TrJTt1lW+82k3sUKCAZkwEbCE87C80sqNdtTRVdfffUsqTE4m/0BLfuaa0iBvsv7Bbj6K343YKjQmH1i1/dXV51+Q986qKKkZv2IJ3oehVcLsImHLKUR2NhrhwJswMRkxyyBt0odeIeq2soSwDZIYKOm8RSxZbA1YYj+CtWM5IRZAGF/MxbpSCyYNMnlWtd7BgmMlMZhwGZhZgRG6sewDgxNomL4PeKII7JUxRZWrsHo2g8AGXLZV4ARQPWb53gndQAdYQM8r0JAyjWuA27UW8+gDrPR8aqVeKf+6AEAeNGo0AOxyfVXV51+qwuwcR7oo/5KATaSeimNwEZ6H6gqyvxBFVXwqmcznQhZwscmdTyCN1pZAtgGCWzAB6hJfUyVmxiwlc6mUvq/vwKcCsD0vNZ3zzKA2Ndc1/MadauDFATkfPreeF1jPWVmb/y91OE5fu/tGtd7n/I74JwYHcp7q3fHHXfMwcZAXD3dUOoCbMIvTIra0/Mo/ADY2M56k9isqBECxDlANSXxWwmD55zraWPz3QRZ6sYHJkEqLcmeEGDD5ImBbbN5AI96//CKDtArajALl8AAJJeBDExE7gkefXVkf9eW33qCVc+6XNffNROrp/H3vuopzyi/+z6QAgTF0/GeMSy7vxtKHYCN80BcI1usoOyeB8mJt11cI2BjYwNICkACZPialI/Px44dm8ODOCNI6Dz5bHjFeUCyB3zqYtfzu/4Egkwqtv8TkzkQSb7ZPIAfA9gGsVbUwLS8iTGdYXQgwNbsTuvU+jCbASOkgG2PBDBQQKdJP/0AACAASURBVKz7O7cb2EhEAIaExMZKq+h5sIUK22C/tTsUU0KRtAESswS7bTE7MHUI7WBvZZbgQTWpk4LwPRsakwYHFZstL6l6jBF10WqAZTsmrwC2QaiiBpcZjk2JW90SpVaL2HUf4P21D4OTcgV1Mih306TQbmAzkElGzCM+ezuKTRiYUVcBUGPB2+Ua9TlcwyFgQtJ/5b7yO/4v3nP1usazLeES9Ev6c22ri2eGxDZAiU3nGIzieqwkaBTlW91xnfY8jIZ2vK7WNFovWqSFTnuX3trbbmDTpgI2/X2WtrtmoKXU19f15Xcxj5b9Cby2yqXEVA7mWX09Y7DnPTOAbRDAhmBiwHh9hF+YyaJMnALoZva3lyVpl0c0gG3idOuUK/QvLyiHhHAh65sBnfPtKJ4bwDZIYEMwbnV2Nh6kbhqgVTEhFUUwL7uPAM5uchygWR0ktqr6bqD1st3ZF1S4CCdFO8dFANsgbWw6mV2B4ZVLuxv3yBwoIw/mOkxuSRhJl6GZHQbYdUsJYKtXTwawDQHY2Iqk/gFsou9LMG29urZerUEzi6Nt5MJTxlDdLjWlCsoEsFVB1aHXGcA2BGAjfQAztgR2NiDXTYN06OzU+50kM7ZI9BJrZRF9O9WU3ls5vLMBbMOjX7PvDmAbArAhGonDUhKG8MZ4oGZ3UDfUR3UX4ClVtTWsnAjdNhEEsNWLUwPYhghsJA4R3IIQLUy3BrPbpJBmsao4JxvHsK9Z49qNsX8BbM3ilubUE8A2BGArpBcMKYLbMhNZZTF3lAkpYIWGYE2ZR6RX6sYJIIBtwn5v55kAtmEAG2aWucNeAzLNSgsU5f8owLYG/MWuCWgWuGkdYTd5Q8vbBrAVStTjM4BtGMBG8hC7YwUCcLv44ou7ctAOlVV5QgVtlvxuEh1iuG4sAWz16tUAtmEAWyGeZULyiwE4C4i7UdUaCtsCfQkDLHoX70d669YSwFavni1jM9IWDSBtUV9dZ2G3TYANYAkahYKM5IKpSGuSa5JkZeGVUt25bi0BbPXq2QC2YUhspSuFfkiaaO9Qalfj9mPlmpH0CcCkuJFo0BZuJVMuZuvWEsBWr54NYGsCsDGGk9JseiJzxf777593fhqJKilaCO+gAkhaKMxDKEy3lwC2evVwAFsTgE2XIqQF8TKGitfiSOABHEkFDUivN954Y5pppplyooDG3eu7mRYBbPXq3QC2JgGbbjWo7exulx6bXFj07Rwid3vxjgJv7UZEHRfbd+6552ZHykh4/wJsMtDKcGF1BZU8jvbQAC9axmd3NyteOjnpAgy54IILsllH6JTvjWWSxi/+FywqL7yUylKtDDcivswSxx57bF6RsNpqq6XHH398RHhJqaDsavZPnX766fMu8tIUjZRSgE0abXt4mtSkyo6jPTSgKdh20v4PHFgBbMMcicBNIkoZYmWy2GSTTfI2ecMFzWE2q7LbvS9bojAXqzDYGG320e58XJW9cB8VF2ldrjkbnJjUbF4dR/toIGeiTYNIbGzgnRoY3naJrfA8AgoB2XbbbfNAl1XUwO9Uwpb36u0TqFlxYUu9aaaZJntCbRjSje/a2/uXcyau+++/P4e22By7kw9St42XfXbye2i7zcBNuOzdnWoSqQ2wISDbyvPPP5+3IbOcSJybrLHdIrl5R+BF/dxhhx3SDDPMkDfHLe/YqUxUgGqwn2ghABk97O7UqYfVITa/tin3r371q/TUU0917Lvog2effTYnqzAeO5UnawNsBgUikmYw+sYbb5zTiG+55ZZ5l3VE7mSJxrsBaEG3W2+99XhJDSN5tyidSwE8a68CvHrWWWdNYKju3Dfr3JbXCtiQsQAAyY1aOtVUU+UURwzLjM2dWAAyQjPOsiOxI44ePTrvVwnsOnVW7MS+qKLN+lCAuTyDm2++eTa6V/GcqHPgFKgdsGl6kdzkbttll12yx9Bmwddcc00OZO0UEdl7aKvgW0ulvIMA3N133z3b2EJSGzij1vlKE+6BBx6Y937l4WU3jNJeCtQS2JCkgBsRX1zNfPPNl3dqknmXoV3D6y7paCP72ZFHHpnBWUp0dhgeYFJc3dvfXtbsnKeXlPef/OQnc5C10JUo7aVAbYGtkMXgF9sl2M5O6Lbvs2OT7CD2AagbwAEsqslLL72UDcnSenOEyBh8ySWXjN81vLxffHYuBcrkK+7y05/+dJp00knTpz71qezttjt8J9uEO7dX/t3y2gObZhYG4nmixskIYvmRQEI7zFP16iL9vPXWW3lxv1AOy8TEA2lz2Uu1Lu3sdMatQ/v1JTXUTmIAbZJJJsmHsA+rSTgVorSHAh0BbEiDiUhC77zzTrrooouykXb22WdPyy67bN5B+9prr82eKS/USjXPszyTyswGaFWGlN5zzDFH9pKNHTs2vf3229nWFqDWHiav6qn6/r333ktLL710ooYWYJOdZcyYMR3r7KqKXq2st2OArRAFOGAodjaudQGRVL1FF100J62kssqMwTDvOod7mgEqpZ5SrxnZszCxhJkLL7xwjk0TOS/HnDbGrF16rvs+9a1sx4KsJ5tssvHA9pnPfCbts88+eULrvrfujDfqOGBDVgCDqdgxBBMCM5swmympfsstt1z2ptrdia3Lwl4qw1C9qeV5iKUuWW4FYvLYepZnUo832GCDvEGN2DRt08ZmAGpnsNLIayV+OuiggxIgY18rEhvpzdIkISBR2kOBjgS2RlIBDqBFcrrlllvymkv2N7FiPklRm266aTr++ONzBgkeSUtF3OPl+ztcI+MEu9ndd9+dTjzxxKwCL7LIItlD6xmkRes8b7vtttyGkZZ2qbEvRtL/+M4icaYQ0tonPvGJ8cAG5IT1XHbZZVljGEl0qcu7djywIWSRqNjggBFpady4cdk7JRUQVWHqqafOwb6f/exns1F/5ZVXziC166675h2hxCE5DjjggOyUoFryZJIC3WM3dnUAM5kPrGUlEfLYAj/PDgmtLmxdfTtIa7LbsPM2ghqpzXfgJjQJfzBdRGktBboC2HqSDNABGtLTu+++mwMmTz755Ax0K620Us57BpxsJlM8rKS7cgAzDMsBMPfcc2fjsEXBpL677ror207U7RnBtD2pPzK+m8zEJ0477bTjJbWiipbPNddcM68ZBYJRWkuBrgQ2JARujUZ+zOUARiQ62TWEj9x0003ZRnfeeeelcvCw3nvvvXnNqkXa7nG4n1TmULdnRBmZFGDS4LiafPLJ+wQ24T7CkWgRUVpLga4Ftv7IWEAPQBWwQwhHAbEAr/4oGL+xuY4aNSp7wQWNM3dY1/y5z30u29esG5Vn7rTTTssTaVCstRQYkcDWWhLH07qRAlIVnX322emnP/1pkv35kEMOycvmJMy0BPCEE07IziZ7WfCkR2ktBQLYWkvveFqXUIBEb/BQM60VlRRVJmRJGq2EYYPzGw0g7LCt7/QAttbTPJ7YZRQAXmy2HAkbbrjhiN/8uw7dG8BWh16INnQ0BQLY6td9AWz165NoUYdRIICtfh0WwFa/PokWdRgFAtjq12EBbPXrk2hRh1EggK1+HRbAVr8+iRZ1GAUC2OrXYQFs9euTaFGHUSCArX4dFsBWvz6JFnUYBQLY6tdhAWz165NoUYdRIICtfh0WwFa/PokWdRgFAtjq12EBbPXrk2hRh1EggK1+HRbAVr8+iRZ1GAUC2OrXYQFs9euTaFGHUSCArX4dVhtgkwFBbjQNkhUhjuppgN6RLHP4gzKAbfg0bHYNtQA2g8t+oQ8++GDe4f3SSy9NcVRPg4cffjin1wlwG96wCmAbHv2quLvtwEYys03ZoYcemuxHYN8B6V/iaC4NyoY2ZWMaucO23377vLNWANvwhlYA2/DoV8XdbQU2A+qhhx5KG2+8cfrSl76UVl999fTDH/4wZyCVhTSO5tDgxz/+cfrRj36UkyDaKs6kgeakYkkRA9iGN7QC2IZHvyrubhuwyUD6wgsvpJ133jnnjd9jjz3y5io2T7EDlAykcTSHBjK8PvbYY2mZZZbJ6auBnI2m0RmoBbANb2ixVdqY216iG220UaQCHx45m3J324DNTlE///nP876dm2++ed6mLFIoN6VPP1YJ0DJB2D7QRiP77rtvevPNNwPMPkal4X0BbK+99lpacskl8+bZJoyBljKxlM+B3hfX9U+BtgCbTnz88cfT1772tbTccsvFFmX999GwfqUm2VDE/qlLLbVUBjUDsRsKPjIZOtoJDJ5tIL3++uvZCUYbUUqb+vt0rf5w+N+1UYZPgZYDm44zo9nhhyGb08D3kNaG35k9a0BrkvG3v/3tvD2c/VIBXacX7wUE2AftNfDkk0+mV199Nb333nvjzRgYe7BAod4ClAUsh0Mr7SPJ2YO050Fq/vDDD7M0feqpp6aDDjoog6M2RBk+BVoObGYmO/rYbHbZZZdNd9xxR8xSw+/HXmswSK655pq88/3aa6+dNxkx2Du9AB3qNRMG7+4ss8ySvvzlL2ezxmKLLZa23nrr9Ktf/Sq98cYbgwI39QIie4b6HA6t0H706NFpiimmyHZNmyc3HiRoO8l7zjbbbJNWXHHFrumfOvBXy4FNeMd1112Xwzp22mmn9O6779aBDl3XBgOLdLbXXnslm/dedNFF+Xs3SAQAyF6dm2yySQa0Sy65JN1www3pl7/8ZeIBXmeddTLICWd58cUXx4Ob+zA8B9Xbb7+dPvjgg/y9SHbA8uqrr07bbrttuv3227P05zcHWrpPvCVJDB+rry96Or/lllsmmylz1rAnNx40lgceeCDXB4iXX375LF17lno9j9PH+CDZabfzDs/2vTzbp+80n/IuGNr/znWL6WEwgxQ9LrjggswH++23X6ZP4/2TNH7xv1mQB3OFFVZIt956a+6Antf0910n/eAHP0jzzz9/wpAaEKX5FDAAqGlCaOabb77stSsDoflPa22N3g2wbbbZZmmRRRbJtq0CCD55KPHYF77whbTLLruMByEgcfPNN+fNjIUVHXPMMTkgnFrovqeeeip95zvfSaS+vffeO1/rOXiWndLmyIcddlg6+uij01VXXZXeeuutDDS9vX0BtjnmmCNrKAWUen6qvyewAdA777wznX766VmqO+mkk3I7qdrA97bbbsvCAeDzHMctt9ySzTvGZ+nnV155JYP9M88801sTu/pcS4ENwTHDQgstlEaNGpWef/75zFBdTeE2vZwZnzq28MIL50FuUHRLKcBGFV100UXzZFsGs3ckoQA3jikqKoAHTmPHjs0Oq/XWWy9PzlRFEyygMhDuuuuuPGFTbTfYYIN07rnn5vvGjRuXzSbf/OY30+67755VYMHkgIfU11vRnq222irNOeecOaypr2sagQ2gOS677LI8Ia277rppzz33zMAnVOeoo47KkiYVdrXVVktPPPFEfld2VBs1Tz/99FlY0PeAGvjamf7yyy/v7fFdfa5lwKajEZv9wkxKDdUBUaqhgNn8kEMOyfYnAEcl6ZYyMWDznngLKBjs1Eq2rGOPPTbHTZKGAD1b76qrrprB33cqJkkOGHC0OEftO/DAA9Omm26al/yR+sQArr/++vleqm5vpQAbic0E7ntvRyOweX6xP6+55prp/vvvz8D629/+Nu24445ZrQK+1GVtBLj61codIL7yyiun733ve1maBZDHHXdc+vrXv54snRtppWXAhhkxidlm5plnzvYG56JUQwEDzmBceumlM+N30yQyUGDDa9NNN10GABLb7373uxwv+fLLL2dwIvGwp80+++xZqgIyVrsw5N9zzz0ZHEl/VDnhSdS85557Lnth3UcaBnK9FSDGxjb11FNnJ8Juu+2WGg+2T44z7SqqKCAFZgsuuGBWl7VHPQYpcPYupEttAXxHHHFElvDGjBmTPd9UZRIoOyAwpVazM1K1R1ppKbCRIojQCyywQHr00UfH2wJGGtFb8b4GjVndoKGKkZa7pQwE2DA2idVSPXY1tilAxj781a9+NQM+WxqJjocSYAESwEHNLMCGbiaJXXfdNaupJgqBuDyc1Mzf/OY3vZIVIG2xxRbp05/+dFZ/OTQaD6rulVdemVXZAmwA6YorrsimGs4e76B4X/YywAYcATOVWNA1lds7sQn++te/zqsfOCVIaTzhP/vZz/K799rILj7ZMmDDIGJ5eOjMiERlnR+lGgr84he/yEvVqCNsMN1E64kBm98BGSABQCQtEym1jMp2/vnnZyADFjvssEOW2Kh7PYGNhgFs5plnngw27nOdQFzS0MSAjcQGNC1nU0/jQTqjRuqbRmADdiTBiy+++GPABsAAG0mPgMDj533Yz6jFF154YR5TgrA5RdjX2LFJeuEVrdArirhc8tbTmWF0ajcNtmrgafC1oilaC3sgLVjobqB3UynA1ugV9c4OKjewEFqB19icnDPQp5xyymwKAWBmdNdZ20kVJXn5TmLj8WeHw6N41lK0/fffP393H4cB0HLf008/3Ssf64fBOg+KKsqLzROqnd7VM++7774MbPrV+5DIqaO8vwDM765jVwR0vLfCYYS1dFv/D4SX0aIl4R464/DDD8/MxpvkwQFsA+miwV2DiXmeqSzzzjtvnrEHV0P9ry7AxobIpkQiop5RGa1COP7447OkJBSkeN6vv/76HFPGEUDiIq0xwpegWQBGojrhhBPS3HPPnaU6DgcAAtgASLmPNLzEEktkXmbMJx325OWhABvA5Dz4xje+kb2y3oWzwnsJWyH9PfLII9msIDRFhhaqMQBjBzTGSHDUb3UA45EIaji4pcDGvW4WNbt0k82nTlCArqQPksgqq6ySHQd1al8z2mKwUhPZmIAQyYiXnUrHfiYExPvzwJcJlGRlaRlpjFTDJuWak08+Ocf5AQl2NSs1ioeRGg8w1Uk9pGm49/vf/34GGuc4EQBQbwDCk8kep46+ClDU9jXWWCOrmJwJAo2towbcHCDbbbddtpf63/WeBfAICsBOm4BuMffMNddceV2wsJGRWloGbBhRJwO2yC5RHbtRx2QiNjCoSySWbiukIe8p3MHgpnY5/M++BBhK0G2RpPAfg7pwDuopx4JcgIDkrLPOyiEdpC+qG1sa8KLOsgWzz1nLWe5DX2Bl9YBsKcItepuoSU+AUxhHX8V7cBicc845GYSBFpWYbUwbeTX32WefHIPXaL4p/Ux1BsgF8Azo0047LcfY9QeofbWnW863BNgwlxlmhhlmyKqDTohSDQV0KLWK55kqQr3qxgIADG6AhZ8aDyqZ3wuoef9yveuAmU/XqcOnesp9aFjscOX3xvucK+dd677GZxV6u0a9nt1X8RtQLId6nFOnZwI5gOY5jfX4v7TDp+/uVU9pW29g21c7uu08elVuY0N0NgG6/4Ybbpg7qdsIWZf3MRh41NiOqFIGaJSgwEijQEuAzQzCK8VdzU5hNopSDQXM8NLgiHg/77zzssRQzZOi1qBAfSnQEmDzEHq/GDY2gQC26hiC6smOxGtnMkH7KEGBkUaByoGN3s/OYKkKiY3BlwQXpRoKCFHgZRM9zwAdk0g1dI5a602BlgAbuw/3OomNZyqArTqm4AW1XEdUunWHQevqaF1qNnmbQATYckyMZKN9oUm7P1sCbAzYgggl3RNsGIOtum635EdMlNQ84tlikFVH61IzGgsvkTpIqnsTeZT2UqAlwFYWv4thExU/scHmd+v7SBz33ntvPsQOiTC3Zg7jAEcz5WBKcZEX1/hg7u15rTqo2BZPiyOy0FriTcHHFp1rY2mfT+2d2Hv3fMZQvotAtxZXrjJxTNoZpVoK6Fu0NnELAg5PdLX0HkjtLQE2S0XsbyAEQcDjxAY4UGD4FiVepA9J9ywTEbAocJI0MthBq16LjAHPYO/tSUyqhwzAosNlLLGHg085sSyQBnIF3MQhycAq+r3qIsODpUSi8sUOFnCt+rkjuX68gKdsRC2cyUQepb0UaAmwkdKk0DHgBmKDMOMJrrMOkIdPokSxWSeeeGLOxiCUQUoYkeLFOG4AA0wvBFAcfgNgDr9Rgy0zskbQ7873vI8Upo7+gE9dUsNYUuOdrB0EZJITaqNnyLZq3Z+67KAEoEWqlzbpdvX47pmOxt9Kuxqv8bvz5bfyru4tEqwoeVljORDQ0bVRqqWAfglgq5bGg63d2Kg0QNfAMrAt1qUiibMyWPsrBqRlLdIhW7yMcRT3YSAZDqxiYLfzXTGwqarCSix0tsQGGFJp/UZldM7aOtKM7AnqQwDBwxbmH3zwwTl5H6BiCO4LFNxzyimn5OVhsrL6Xq41W5M2tdEzSWmWxsj7pb0kRiEZgFOSQktpPJfX2No+k4C6tI2jRSyaBduSCFqe4z70sD7RvYDfb9Y4ek8qu2fJH6ZdUaqnQABb9TQe7BPwfuXAZoCLq5JOxcDvTxryAn0BmwFv8Br8vKwWQFMHFRKTNC4kI5kQLED2TANcHjigZxE+OwhpysJhL+88DyIpy30WUlvTKpEfFbK3tmqD57IZyudFvVaXawES8AaM3sM6QgusbRPnOaQ2QGVDDu2gvsrEoR7qugBmdkTPBmQkQuBlYTY13HNuuummXJd7rV/kKLDwG4Cy9U0++eS5/QVsB8sUcf3gKKBPTFJS3ltYr9+jtJcC+qRyYGPQXnzxxfMA1+m9gUUjGfoCNtcUaYbBXlycrc3UR+qZddZZszoIOF544YUsfdk4hpRE9ST9UGNJZMDOc0h48l+x28mQ4D4LoNVFlQRiPYvnkUIBpzZQi+U9Y0BWJ6ICOAcgJ4nNNNNMOZ2OBdGeDWRJsZwjnkvyJEVSb0mrVPYimcrLT/ITo+Y62R5c55neVcprQC3xoXTRn/jEJzJA9mx3fG8+BfAj3tKfNoGR9ohpIEp7KdBxwIZcmInzwAxpz0DFi5CcHJwV1D2LwQHUmWeeme+xS5FsqCUiH0BRI4AIwHGf7A4kJapuUe96dlEBVzY7tiwMTXrTHvnqSWDU22I3I0VpxxlnnJHBjm2QdGaROgO/NriWdGe7PCBFhQZs9oeQJpoE5xpAKEuqjA8AUptJh8BtmmmmyUkHA9h69lg13/EBvtO/kljq04F4/atpTdTaSIGWAZv88lSyZkhsAAkIUCvFDZGMMJT0yEBBZlVqGomIJ1bed4WEI/liASzSmPgjEpVEguU+6h+QYqMDOr0VTO1+szUQ5Uwg/UkVJB8WZ4lNN4ARNbkRYEmQJEntdX+pi8rODscGKNCW3c19PJ3aobNsNg3sSIs8snKROYR3kAqBHmArm3h4vziaTwMTD5MBPiRRm9w4ufBilPZToCXARo1qJrBptD0fef98krIAGjUTKJDQ7NwjN1dfwKYOUhoVlkOBbY06Sl0lcVEx+wM24KoOn0XtBHSAmx2NZCgxIFW0J7ABUmmF2AAAX5EABdcCK+DIZgPYtI1KXICNR5c0SbKTI6zkIiv5yLR90kknzR7lAnrx+W/wbyYdTIKcW7LrmlBoDmWSav+wjha0BNh48Bi3hyqxFQApEhL7Gg8rqYxUJJBX/Bhph6RDbaOS8hoCAR5MpUhsxebGPgVw7ebDtgZk3EcKtPyLCtibxIaBAYyEhp4F2ICTog6qJsmJLYwjwS7dZnTA6bqiigIuqmRRiTkyvBPpkT2tABvA0w6HrLCcGwYSKVVbgKnnsPuJlwNsUkQZeHFURwNxliYitlFScUhreQjU4k9LgG2ozgMDmHhPsiKV2T6N+iZVc5HWDGrR/jLGkrqoB8AF2PHCUlftoA081MVRIE8Z2xYbGcDlVQRygMMmHgKB7QcpjKInsAEm7cHQ1FqSIUDB1J6hTlKg9pEYSWyAGFCW5TacDBwOngPMADZgIn1yslCdPaMAG4lXOzyD9EbyAIBCO9wLXIEnryjHA2CzXpTtJ45qaIDe+M7EVCa1WozoaESmQC2BzUAFYOxLIvpJPnLLC49gmxKaUVRQA9tsSQXzm2uFTAAOHkISmUwXgmcBAVAkTQkHARgM+MDOagH3eQ5AYScjFVIbe87EQAZTWz7DHkd1FFbioKIAZO2gTrqWFEk1dR7YAXrtAU7qEHcn1IR6ySPL1gawXUu9Vo/3NIDQhvND6AjgPuCAA/JzvePOO++cw1Amm2yyLPV5dhzV0EB/OExmUepHgVoCm0bZjcegFa/mMPgNdKEaousN8DJT+gRSJCwAxd7GQUCSkk+exEZyYeSnQopRUyevIhDhohdH5pzfGYapmSQgnlXgUJ5VuhDY8Xyyk1ELqcEADlCyzQGzAkakNmqwdnkWqQ5wUSsF+DL0A1X2PSCmbs+UdohnVDsbwZWUYPckuzFpN88sNZc0R+IEbOqLEhQYqRSoJbCZBQEX9bN49PxPPXO+t5nSOQMemLnHiwEHAOI+n767H3CxT7nHOfexabmPzQqIuB4Q+uxtVgZ07lefuqjA1Fn/u0cdBQzd75z6qcDa5jef2qbN2kQdVadS7vG7Npa6ym/uLe8rDs69ngks/+M//iOAbaSO6HjvTAHjo/IAXYOe+scORnpplD6iH5pLAeq2xdjUYoAYJSgwEinQEmAjqRTvXJEsRiKxW/HOVHi2Sba6CD9oBcXjGXWkQEuAjfolKpuncCDZPepIqE5pk/AX3lrOC6pqowrbKe8Q7QwKDJcCLQE2UhpvJBXJ8p9QRYfbbX3fz4liEhH6wunQm32w77vjl6BAd1CgJcDGcC5WzHpKBvZiIO8OEtbrLXh5hYJIeCiwNyaRevVPtKY1FGgJsPEcCkkQpGoVQgBbdZ0r5EO8n+BfYTFB6+poHTXXlwItATZGbGsZAZu4sBhs1TGEVQ3bbLNNXmJm6VbQujpaR831pUDlwObVPUTKbMBmuVCEIVTHEDzQ++67b84uUoKLq3ta1BwUqCcFWgJsgEw0vowZVhAEsFXHDDyhVjfYLwLNrZuNEhQYaRRoCbAxYMtXJhe/tZgeqJJe2gAABZxJREFUGqUaCrBnWgiP1rJOMANECQqMNAq0BNjEUln2I5WO3P0BbNWxGdpKyyRm8PDDD89pmKp7WtQcFKgnBVoCbF6d5CBTBTubnGcROFoNQ1DzOQ1MIBbIC6+JEhQYaRRoGbB5UMmPJog0AkerYTVeUKnEbTAtgabwmihBgZFGgZYBG0mCt06QrhQ+4UCohtVMGKQ02/JJWinJZZSgwEijQMuAjSQhjYhlVfbJjAXa1bAaFd9KDzS2axV7W6j91dA6aq0vBVoKbLbMA2zUJOmLYsBVwxikNokn0dqWfzGJVEPnqLW+FGgZsAn5EGNl2zjpumWYDWCrjjGkHpcq3cYwsRi+OjpHzfWkQMuAjRRBcpAAcfbZZ892tnAgVMcU0pZbM2pfBXssxNKq6mgdNdePAi0DNtIZh8G4ceNyyAcbECkupLZqmIJ0bIMYsYP2R9DRUYICI4UCLQM2BAVi9hawJd6aa66Z8/2H1FYNq1lKddZZZ+XdsWwII3YwSlBgpFCgpcCGqCSJjTbaKIci2Jsxwj6qYTWq58MPP5y3HpSfzcqPkI6roXXUWj8KtBzYrGUkScw222x5yY/sulGaTwEgJuxj9OjR2Ttq96pQ/ZtP56ixnhRoObCR0ETG2zxYMsSIjK+OMYBbmUQ4bUwqofpXR++ouT4UaDmwGVj2PTj44IOzYfv000/PHrtQk5rPFGgqoy5VdO65506PPfZYeEebT+aosYYUaDmwGWzsP3Y5F2dl/SgJLsIRquEOToTTTjstpzHaaqutsnoaUls1tI5a60OBlgNbeXWZXg844IA044wzpiOOOCLvoG7AheRWKNScTzS1O71dwmRWufDCC3PoR4Bbc+gbtdSTAm0DNrY2Xjt2NkkRDbjYc7T5TFIkZLFsn//859N8882XeKN1fIBb8+kdNdaDAm0DNgOOl27s2LFpgQUWSDPNNFOW3F588cUsYZAy4mgODd54441kk5ejjjoqTT755GnOOefMa0kttQpPaT0GYrSiuRRoG7B5DeBmmRVwW2mllfKeCFNMMUUefAZgHM2hwac+9an0yU9+Mk022WRp0kknzZ++b7755ukPf/hDSG7NHVNRWw0o0FZg8/7UoRICIkJ+k002SWuttVZemWB1QhzV0cDOYe+//37YNWswEKMJzaVA24GtvA7pDcjF0ToaoHmUoEA3UqA2wNaNxI13CgoEBdpDgQC29tA9nhoUCApUSIEAtgqJG1UHBYIC7aFAAFt76B5PDQoEBSqkQABbhcSNqoMCQYH2UCCArT10j6cGBYICFVIggK1C4kbVQYGgQHsoEMDWHrrHU4MCQYEKKRDAViFxo+qgQFCgPRQYFrDFngXt6bR4alAgKNA/BQDbmDFj8hYE++233wS7tE3S83YZN+RRW3rppdN11103wQ09r4/vQYGgQFCg1RSQYNVa6JlnnjmdfPLJE+DUBMBm85VTTz01zTrrrPnThiFRggJBgaBAnSjw9ttv5+w1tvp89NFHJ8jQPQGwEfFuuOGGnLBQkkjJIp2ToSOOoEHwQPBAO3kAFhG+TjjhhKyGjho1Kr377rs572Aj8E4AbLJvuPDAAw9McqctvvjieWOWm266Kd17771xBA2CB4IH2sID99xzT87tuOGGG+ZN2eeYY4700EMPZWmtZyabCYAN6rnohRdeSHvttVeW3OxbMMMMM+T9C/wfR9AgeCB4oB08AIdk41599dXTtddemz766KNGQW38/70Cm19Jbuxr9913XzrzzDNzWu9DDz00HXbYYXEEDYIHggdaygOwx3HMMcekcePGpVdffbXftPd9AluBPjnz6bW8ENJ8xxE0CB4IHmgXD8AhNj6CV39losDW383xW1AgKBAUqCMFAtjq2CvRpqBAUGBYFAhgGxb54uagQFCgjhT4/zLHsoxqo33KAAAAAElFTkSuQmCC;" parent="1" vertex="1">
          <mxGeometry x="600" y="206" width="210" height="168" as="geometry" />
        </mxCell>
        <mxCell id="jMATruOiQuWeCfkyKokE-10" value="Central Authentication for Triax (CAT)" style="text;html=1;strokeColor=none;fillColor=none;align=center;verticalAlign=middle;whiteSpace=wrap;rounded=0;fontStyle=1;fontSize=23;" parent="1" vertex="1">
          <mxGeometry x="230" y="30" width="420" height="10" as="geometry" />
        </mxCell>
        <mxCell id="jMATruOiQuWeCfkyKokE-11" value="Data Flow Diagram" style="text;html=1;strokeColor=none;fillColor=none;align=center;verticalAlign=middle;whiteSpace=wrap;rounded=0;fontSize=15;" parent="1" vertex="1">
          <mxGeometry x="319" y="50" width="235" height="20" as="geometry" />
        </mxCell>
        <mxCell id="jMATruOiQuWeCfkyKokE-32" value="" style="endArrow=classic;startArrow=classic;html=1;fontSize=15;entryX=0;entryY=0.5;entryDx=0;entryDy=0;exitX=1;exitY=0.5;exitDx=0;exitDy=0;" parent="1" source="jMATruOiQuWeCfkyKokE-4" edge="1">
          <mxGeometry width="50" height="50" relative="1" as="geometry">
            <mxPoint x="330" y="350" as="sourcePoint" />
            <mxPoint x="401.5" y="290" as="targetPoint" />
          </mxGeometry>
        </mxCell>
        <mxCell id="3p6xNGqBVKwrnEuydQYg-2" value="Cognito" style="rounded=0;whiteSpace=wrap;html=1;fontSize=15;" parent="1" vertex="1">
          <mxGeometry x="401.5" y="260" width="120" height="60" as="geometry" />
        </mxCell>
        <mxCell id="3p6xNGqBVKwrnEuydQYg-15" value="" style="group" parent="1" vertex="1" connectable="0">
          <mxGeometry x="241.5" y="430" width="120" height="60" as="geometry" />
        </mxCell>
        <mxCell id="jMATruOiQuWeCfkyKokE-14" value="" style="rounded=0;whiteSpace=wrap;html=1;fontSize=15;" parent="3p6xNGqBVKwrnEuydQYg-15" vertex="1">
          <mxGeometry width="120" height="60" as="geometry" />
        </mxCell>
        <mxCell id="jMATruOiQuWeCfkyKokE-25" value="&lt;b&gt;Auth Providers&lt;/b&gt;" style="text;html=1;strokeColor=none;fillColor=none;align=center;verticalAlign=middle;whiteSpace=wrap;rounded=0;fontSize=15;" parent="3p6xNGqBVKwrnEuydQYg-15" vertex="1">
          <mxGeometry y="10" width="120" height="20" as="geometry" />
        </mxCell>
        <mxCell id="3p6xNGqBVKwrnEuydQYg-1" value="Microsoft SSO, etc." style="text;html=1;strokeColor=none;fillColor=none;align=center;verticalAlign=middle;whiteSpace=wrap;rounded=0;" parent="3p6xNGqBVKwrnEuydQYg-15" vertex="1">
          <mxGeometry x="5.75" y="30" width="108.5" height="20" as="geometry" />
        </mxCell>
        <mxCell id="3p6xNGqBVKwrnEuydQYg-17" value="" style="group" parent="1" vertex="1" connectable="0">
          <mxGeometry x="241.5" y="90" width="120" height="60" as="geometry" />
        </mxCell>
        <mxCell id="3p6xNGqBVKwrnEuydQYg-18" value="" style="rounded=0;whiteSpace=wrap;html=1;fontSize=15;" parent="3p6xNGqBVKwrnEuydQYg-17" vertex="1">
          <mxGeometry width="120" height="60" as="geometry" />
        </mxCell>
        <mxCell id="3p6xNGqBVKwrnEuydQYg-19" value="&lt;b&gt;Triax Services&lt;/b&gt;" style="text;html=1;strokeColor=none;fillColor=none;align=center;verticalAlign=middle;whiteSpace=wrap;rounded=0;fontSize=15;" parent="3p6xNGqBVKwrnEuydQYg-17" vertex="1">
          <mxGeometry y="10" width="120" height="20" as="geometry" />
        </mxCell>
        <mxCell id="3p6xNGqBVKwrnEuydQYg-20" value="Spot-r, FRT, etc." style="text;html=1;strokeColor=none;fillColor=none;align=center;verticalAlign=middle;whiteSpace=wrap;rounded=0;" parent="3p6xNGqBVKwrnEuydQYg-17" vertex="1">
          <mxGeometry x="5.75" y="30" width="108.5" height="20" as="geometry" />
        </mxCell>
        <mxCell id="3p6xNGqBVKwrnEuydQYg-24" style="edgeStyle=orthogonalEdgeStyle;rounded=0;orthogonalLoop=1;jettySize=auto;html=1;exitX=0.5;exitY=0;exitDx=0;exitDy=0;entryX=0.5;entryY=1;entryDx=0;entryDy=0;" parent="1" source="jMATruOiQuWeCfkyKokE-14" target="jMATruOiQuWeCfkyKokE-4" edge="1">
          <mxGeometry relative="1" as="geometry">
            <Array as="points">
              <mxPoint x="302" y="350" />
              <mxPoint x="302" y="350" />
            </Array>
          </mxGeometry>
        </mxCell>
        <mxCell id="3p6xNGqBVKwrnEuydQYg-26" style="edgeStyle=orthogonalEdgeStyle;rounded=0;orthogonalLoop=1;jettySize=auto;html=1;exitX=0.5;exitY=1;exitDx=0;exitDy=0;entryX=0.5;entryY=0;entryDx=0;entryDy=0;" parent="1" source="3p6xNGqBVKwrnEuydQYg-18" target="jMATruOiQuWeCfkyKokE-4" edge="1">
          <mxGeometry relative="1" as="geometry" />
        </mxCell>
        <mxCell id="3p6xNGqBVKwrnEuydQYg-28" value="" style="endArrow=classic;startArrow=classic;html=1;fontSize=15;entryX=0;entryY=0.5;entryDx=0;entryDy=0;exitX=0.799;exitY=0.506;exitDx=0;exitDy=0;exitPerimeter=0;" parent="1" source="jMATruOiQuWeCfkyKokE-2" edge="1">
          <mxGeometry width="50" height="50" relative="1" as="geometry">
            <mxPoint x="202" y="290" as="sourcePoint" />
            <mxPoint x="261.5" y="289.71" as="targetPoint" />
          </mxGeometry>
        </mxCell>
        <mxCell id="3p6xNGqBVKwrnEuydQYg-31" value="" style="group" parent="1" vertex="1" connectable="0">
          <mxGeometry x="120" y="250" width="100" height="80" as="geometry" />
        </mxCell>
        <mxCell id="jMATruOiQuWeCfkyKokE-2" value="" style="shape=dataStorage;whiteSpace=wrap;html=1;fixedSize=1;" parent="3p6xNGqBVKwrnEuydQYg-31" vertex="1">
          <mxGeometry width="100" height="80" as="geometry" />
        </mxCell>
        <mxCell id="jMATruOiQuWeCfkyKokE-7" value="Redis" style="text;html=1;strokeColor=none;fillColor=none;align=center;verticalAlign=middle;whiteSpace=wrap;rounded=0;" parent="3p6xNGqBVKwrnEuydQYg-31" vertex="1">
          <mxGeometry x="20" y="30" width="40" height="20" as="geometry" />
        </mxCell>
      </root>
    </mxGraphModel>
  </diagram>
</mxfile>
